Coordinates
version=1
nRows=17
nColumns=38
inDegrees=no

Units are S.I. units (second, meters, Newtons, ...)
If the header above contains a line with 'inDegrees', this indicates whether rotational values are in degrees (yes) or radians (no).

endheader
time	pelvis_tilt	pelvis_list	pelvis_rotation	pelvis_tx	pelvis_ty	pelvis_tz	hip_flexion_r	hip_adduction_r	hip_rotation_r	knee_angle_r	ankle_angle_r	subtalar_angle_r	mtp_angle_r	hip_flexion_l	hip_adduction_l	hip_rotation_l	knee_angle_l	ankle_angle_l	subtalar_angle_l	mtp_angle_l	lumbar_extension	lumbar_bending	lumbar_rotation	arm_flex_r	arm_add_r	arm_rot_r	elbow_flex_r	pro_sup_r	wrist_flex_r	wrist_dev_r	arm_flex_l	arm_add_l	arm_rot_l	elbow_flex_l	pro_sup_l	wrist_flex_l	wrist_dev_l
1.21	-2.76585	1.4463	-1.94875	0.689156	0.819561	0.935963	-0.285601	-0.0254795	-0.122891	0.0405771	0.160047	0	0	0.301834	-0.0252609	-0.350256	0.462864	0.108688	0	0	-0.262703	-0.086115	-0.0848346	-0.0518058	-0.248011	0.213844	0.492397	1.00443	0	0	-0.115103	-0.356079	0.267824	0.749648	1.32152	0	0
1.22	-2.76825	1.44984	-1.9457	0.688548	0.82935	0.933982	-0.297437	-0.0242588	-0.124122	0.0348383	0.166056	0	0	0.295088	-0.0143322	-0.366246	0.379274	0.101071	0	0	-0.261317	-0.0852019	-0.0849721	-0.0494665	-0.247214	0.215944	0.4896	1.00012	0	0	-0.114195	-0.355305	0.266961	0.742782	1.3213	0	0
1.23	-2.75469	1.45284	-1.95732	0.687637	0.839375	0.931647	-0.312944	-0.0297053	-0.148266	0.0283703	0.181261	0	0	0.286962	0.00145987	-0.377304	0.294699	0.0940769	0	0	-0.259181	-0.0860515	-0.0867206	-0.0480249	-0.246593	0.217953	0.487155	0.995784	0	0	-0.113879	-0.355005	0.267102	0.736656	1.32066	0	0
1.24	-2.76502	1.4563	-1.94638	0.686542	0.848978	0.929497	-0.317527	-0.0284074	-0.150868	0.0327739	0.18853	0	0	0.276124	0.0168867	-0.378497	0.207567	0.083238	0	0	-0.259139	-0.0836012	-0.0868136	-0.0448188	-0.247349	0.220629	0.484402	0.990671	0	0	-0.111215	-0.353031	0.267588	0.728355	1.32019	0	0
1.25	-2.76639	1.45949	-1.94355	0.685279	0.858806	0.927103	-0.326851	-0.0286547	-0.155958	0.0335468	0.199533	0	0	0.261267	0.0358688	-0.363895	0.115625	0.0657304	0	0	-0.258482	-0.0822113	-0.0877142	-0.0423397	-0.248363	0.223759	0.481964	0.984354	0	0	-0.108802	-0.351155	0.268031	0.719779	1.32065	0	0
1.26	-2.78563	1.46366	-1.92259	0.684084	0.868701	0.924524	-0.335289	-0.0264087	-0.160843	0.0356594	0.209811	0	0	0.24716	0.0504104	-0.338981	0.0322623	0.0474236	0	0	-0.257484	-0.0788396	-0.088582	-0.0401665	-0.249239	0.225308	0.480367	0.978544	0	0	-0.106898	-0.349691	0.268614	0.712208	1.32166	0	0
1.27	-2.81252	1.46536	-1.89115	0.683058	0.878199	0.921985	-0.344159	-0.020186	-0.160493	0.0414974	0.216631	0	0	0.24831	0.056565	-0.319468	0	0.0383032	0	0	-0.260161	-0.0761815	-0.090765	-0.0381646	-0.249213	0.22579	0.479418	0.97446	0	0	-0.103852	-0.349732	0.269535	0.706085	1.32286	0	0
1.28	-2.85822	1.46767	-1.84292	0.682123	0.887944	0.919463	-0.352067	-0.0152724	-0.167345	0.049248	0.226659	0	0	0.260894	0.0559746	-0.320993	0	0.0464264	0	0	-0.262049	-0.0717895	-0.0917929	-0.0356631	-0.249323	0.2265	0.478262	0.970201	0	0	-0.10156	-0.349607	0.270195	0.699578	1.32491	0	0
1.29	-2.88613	1.46637	-1.8118	0.681293	0.897776	0.917438	-0.362144	-0.0132256	-0.176362	0.0600993	0.237606	0	0	0.265179	0.0590207	-0.304058	0	0.0427172	0	0	-0.267254	-0.0708817	-0.0926353	-0.0335567	-0.248317	0.226126	0.476415	0.96621	0	0	-0.0979556	-0.350175	0.271053	0.69218	1.32771	0	0
1.3	-2.84827	1.46677	-1.84818	0.680613	0.907975	0.914878	-0.372268	-0.0153211	-0.182241	0.0640825	0.247398	0	0	0.268887	0.0684358	-0.281793	0	0.0345533	0	0	-0.267764	-0.0775366	-0.0923615	-0.0332562	-0.246295	0.225081	0.474646	0.962613	0	0	-0.0960371	-0.352453	0.272012	0.687454	1.33144	0	0
1.31	-2.87359	1.46852	-1.824	0.679893	0.919063	0.912815	-0.378985	-0.0146366	-0.188474	0.0754942	0.256276	0	0	0.270852	0.0708183	-0.285327	0	0.041414	0	0	-0.267192	-0.0767822	-0.0889037	-0.0334964	-0.246002	0.224251	0.473167	0.959304	0	0	-0.0949638	-0.352697	0.272896	0.681984	1.3357	0	0
1.32	-2.95275	1.46415	-1.74695	0.679353	0.929854	0.912247	-0.384292	-0.0115492	-0.181469	0.099977	0.260767	0	0	0.260033	0.0686809	-0.271232	0	0.0357712	0	0	-0.2752	-0.0717591	-0.0827971	-0.0322012	-0.246104	0.223345	0.470715	0.95612	0	0	-0.0907564	-0.351151	0.273137	0.673823	1.34091	0	0
1.33	-2.92244	1.46325	-1.779	0.678544	0.942041	0.910387	-0.389657	-0.0217609	-0.210982	0.123606	0.278281	0	0	0.25246	0.0774088	-0.257117	0	0.0295436	0	0	-0.273923	-0.0784236	-0.0781305	-0.0353962	-0.244535	0.221094	0.468947	0.953124	0	0	-0.0911551	-0.352277	0.272635	0.66979	1.34748	0	0
1.34	-2.91145	1.46427	-1.79508	0.677884	0.954422	0.908881	-0.38879	-0.034151	-0.23294	0.152776	0.294499	0	0	0.241916	0.0820885	-0.241355	0	0.0275341	0	0	-0.270071	-0.0830451	-0.0702458	-0.0386612	-0.243084	0.218317	0.465902	0.950093	0	0	-0.0928251	-0.352281	0.27093	0.666669	1.35473	0	0
1.35	-2.87907	1.46163	-1.82924	0.677064	0.966483	0.907614	-0.388892	-0.0445754	-0.245112	0.185161	0.303848	0	0	0.247354	0.0870207	-0.23407	0.0364686	0.0393923	0	0	-0.269983	-0.090672	-0.0644046	-0.0420361	-0.240975	0.216213	0.461869	0.946813	0	0	-0.0938662	-0.353091	0.268559	0.66513	1.36224	0	0
1.36	-2.84334	1.45958	-1.86615	0.676058	0.978875	0.906454	-0.388689	-0.0556532	-0.254218	0.217688	0.31009	0	0	0.253445	0.0925967	-0.229128	0.0741597	0.048732	0	0	-0.268205	-0.0983906	-0.0591317	-0.0460185	-0.238699	0.214392	0.45714	0.943225	0	0	-0.0964138	-0.353422	0.264502	0.664097	1.36968	0	0
1.37	-2.80781	1.45778	-1.90256	0.674799	0.991549	0.905464	-0.386749	-0.0676616	-0.261178	0.252809	0.312862	0	0	0.257032	0.0985098	-0.226219	0.101422	0.0384222	0	0	-0.265205	-0.105797	-0.0541308	-0.0509335	-0.236448	0.211419	0.452992	0.939541	0	0	-0.100108	-0.352812	0.258556	0.662627	1.37734	0	0
